<?xml version="1.0" standalone="no"?><!DOCTYPE svg PUBLIC "-//W3C//DTD SVG 1.1//EN" "http://www.w3.org/Graphics/SVG/1.1/DTD/svg11.dtd"><svg t="1711430282380" class="icon" viewBox="0 0 1042 1024" version="1.1" xmlns="http://www.w3.org/2000/svg" p-id="1749" xmlns:xlink="http://www.w3.org/1999/xlink" width="203.515625" height="200"><path d="M991.085714 658.285714h-36.571428v-129.828571c0-20.114286-16.457143-36.571429-36.571429-36.571429h-365.714286V365.714286h36.571429c20.114286 0 36.571429-16.457143 36.571429-36.571429v-146.285714c0-20.114286-16.457143-36.571429-36.571429-36.571429h-146.285714c-20.114286 0-36.571429 16.457143-36.571429 36.571429v146.285714c0 20.114286 16.457143 36.571429 36.571429 36.571429h36.571428v126.171428h-365.714285c-20.114286 0-36.571429 16.457143-36.571429 36.571429V658.285714h-36.571429c-20.114286 0-36.571429 16.457143-36.571428 36.571429v146.285714c0 20.114286 16.457143 36.571429 36.571428 36.571429h146.285715c20.114286 0 36.571429-16.457143 36.571428-36.571429v-146.285714c0-20.114286-16.457143-36.571429-36.571428-36.571429h-36.571429v-93.257143h329.142857V658.285714h-36.571428c-20.114286 0-36.571429 16.457143-36.571429 36.571429v146.285714c0 20.114286 16.457143 36.571429 36.571429 36.571429h146.285714c20.114286 0 36.571429-16.457143 36.571429-36.571429v-146.285714c0-20.114286-16.457143-36.571429-36.571429-36.571429h-36.571429v-93.257143h329.142858V658.285714h-36.571429c-20.114286 0-36.571429 16.457143-36.571429 36.571429v146.285714c0 20.114286 16.457143 36.571429 36.571429 36.571429h146.285714c20.114286 0 36.571429-16.457143 36.571429-36.571429v-146.285714c0-20.114286-16.457143-36.571429-36.571429-36.571429z"  p-id="1750"></path></svg>
