<?xml version="1.0" standalone="no"?><!DOCTYPE svg PUBLIC "-//W3C//DTD SVG 1.1//EN"
        "http://www.w3.org/Graphics/SVG/1.1/DTD/svg11.dtd">
<svg t="1720242971107" class="icon" viewBox="0 0 1024 1024" version="1.1" xmlns="http://www.w3.org/2000/svg" p-id="4270"
     xmlns:xlink="http://www.w3.org/1999/xlink" width="200" height="200">
    <path d="M858.925 913.968H613.599a77.328 77.328 0 0 1-77.952-77.328V663.476a77.952 77.952 0 0 1 77.952-75.624h245.326a78.52 78.52 0 0 1 77.952 77.952v173.164a77.952 77.952 0 0 1-77.952 75zM613.599 647.863a18.452 18.452 0 0 0-18.452 17.884v173.164a18.452 18.452 0 0 0 18.452 17.885h245.326a17.884 17.884 0 0 0 17.884-17.885V665.747a17.884 17.884 0 0 0-17.884-17.884z"
          p-id="4271"></path>
    <path d="M837.577 645.024a29.41 29.41 0 0 1-29.41-30.034v-69.833a73.808 73.808 0 1 0-147.217 0v69.833a30.034 30.034 0 1 1-57.74 0v-69.833a133.365 133.365 0 1 1 266.105 0v69.833a30.034 30.034 0 0 1-31.738 30.034zM694.447 733.31a41.56 41.56 0 1 0 41.56-41.56 41.56 41.56 0 0 0-41.56 41.56z"
          p-id="4272"></path>
    <path d="M737.142 838.4a30.034 30.034 0 0 1-30.034-30.034v-51.949a30.034 30.034 0 0 1 57.74 0v51.95a29.466 29.466 0 0 1-27.706 30.033zM491.816 292.905c-40.991 0-404.068 0-404.068-115.424S450.2 62 491.816 62s404.07 0 404.07 115.424-362.51 115.48-404.07 115.48zM150.654 177.48c24.811 21.347 147.616 54.277 341.162 54.277s316.352-32.93 341.162-54.277c-24.81-21.348-147.615-54.845-341.162-54.845s-316.35 35.2-341.162 56.775z m261.507 338.266c-98.732-5.677-323.619-26.57-323.619-115.424a30.034 30.034 0 1 1 57.74 0c7.495 9.822 86.583 43.887 264.97 52.517a28.842 28.842 0 0 1 28.388 31.17 29.466 29.466 0 0 1-27.138 31.737zM369.466 735.07c-129.334-9.822-281.15-36.961-281.15-109.122a30.034 30.034 0 0 1 57.74 0c6.358 8.062 71.593 38.096 223.41 49.621a30.034 30.034 0 0 1 0 57.74z"
          p-id="4273"></path>
    <path d="M430.045 961.886c-102.195-3.463-340.651-22.71-340.651-115.423V179.184a30.034 30.034 0 0 1 57.74 0v669.947c9.255 12.718 102.763 46.158 282.854 53.085a30.034 30.034 0 0 1 28.842 31.17 29.466 29.466 0 0 1-28.785 28.5z m435.238-590.461a29.466 29.466 0 0 1-29.466-28.842V179.184a30.034 30.034 0 1 1 57.74 0v163.342a30.034 30.034 0 0 1-28.274 28.842z"
          p-id="4274"></path>
</svg>
